<svg xmlns="http://www.w3.org/2000/svg" width="135" height="135" viewBox="0 0 135 135">
  <g id="Group_68" data-name="Group 68" transform="translate(-471.651 -153.651)">
    <g id="Group_91" data-name="Group 91">
      <g id="Ellipse_18" data-name="Ellipse 18" transform="translate(471.651 153.651)" fill="none" stroke="#707070" stroke-width="5">
        <circle cx="67.5" cy="67.5" r="67.5" stroke="none"/>
        <circle cx="67.5" cy="67.5" r="65" fill="none"/>
      </g>
      <g id="file" transform="translate(520.805 189.473)" opacity="0.85" style="mix-blend-mode: lighten;isolation: isolate">
        <path id="Path_33" data-name="Path 33" d="M0,18.648H44.756V0H0ZM29.279,4.7h6.472V6.629h-4.27V8.683H35v1.786H31.481v3.76h-2.2Zm-10.285,0h3.558a5.264,5.264,0,0,1,2.068.376A4.16,4.16,0,0,1,27,7.6a5.566,5.566,0,0,1,.3,1.846,5.484,5.484,0,0,1-.336,1.967,4.23,4.23,0,0,1-.96,1.5,4.309,4.309,0,0,1-1.5.967,5.345,5.345,0,0,1-1.954.342H18.994Zm-9.036,0h4.068a2.793,2.793,0,0,1,1.255.282,3.221,3.221,0,0,1,.98.739,3.528,3.528,0,0,1,.644,1.034,3.078,3.078,0,0,1,.235,1.168,3.343,3.343,0,0,1-.222,1.208A3.452,3.452,0,0,1,16.3,10.16a2.91,2.91,0,0,1-.96.725,2.865,2.865,0,0,1-1.249.269H12.16v3.075h-2.2Z" transform="translate(0 44.01)" fill="#fff"/>
        <path id="Path_34" data-name="Path 34" d="M2.471,2.269a1.488,1.488,0,0,0,.282-.98A1.7,1.7,0,0,0,2.665.712a1.188,1.188,0,0,0-.235-.4A.9.9,0,0,0,2.095.074,1.022,1.022,0,0,0,1.719,0H0V2.6H1.8A.852.852,0,0,0,2.471,2.269Z" transform="translate(12.16 50.639)" fill="#fff"/>
        <path id="Path_35" data-name="Path 35" d="M0,0V10.443H10.443Z" transform="translate(32.075 2.238)" fill="#fff"/>
        <path id="Path_36" data-name="Path 36" d="M27.6,17.156V0H0V39.534H44.756V17.156Z" transform="translate(0)" fill="#fff"/>
        <path id="Path_37" data-name="Path 37" d="M2.43,5.451a2.171,2.171,0,0,0,.785-.6,2.72,2.72,0,0,0,.483-.9A3.657,3.657,0,0,0,3.867,2.82,3.7,3.7,0,0,0,3.7,1.672a2.578,2.578,0,0,0-.49-.893A2.135,2.135,0,0,0,2.417.2,2.669,2.669,0,0,0,1.356,0H0V5.666H1.356A2.559,2.559,0,0,0,2.43,5.451Z" transform="translate(21.196 50.639)" fill="#fff"/>
      </g>
    </g>
  </g>
</svg>
