<svg xmlns="http://www.w3.org/2000/svg" width="52.637" height="10.025" viewBox="0 0 52.637 10.025">
  <g id="Group_92" data-name="Group 92" transform="translate(-3091.367 -711.503)">
    <path id="Path_73" data-name="Path 73" d="M4.878,0A4.947,4.947,0,0,1,9.756,5.013a4.947,4.947,0,0,1-4.878,5.013A4.947,4.947,0,0,1,0,5.013,4.947,4.947,0,0,1,4.878,0Z" transform="translate(3091.367 711.503)" fill="#6b6868"/>
    <path id="Path_74" data-name="Path 74" d="M4.878,0A4.947,4.947,0,0,1,9.756,5.013a4.947,4.947,0,0,1-4.878,5.013A4.947,4.947,0,0,1,0,5.013,4.947,4.947,0,0,1,4.878,0Z" transform="translate(3112.794 711.503)" fill="#6b6868"/>
    <path id="Path_75" data-name="Path 75" d="M4.878,0A4.947,4.947,0,0,1,9.756,5.013a4.947,4.947,0,0,1-4.878,5.013A4.947,4.947,0,0,1,0,5.013,4.947,4.947,0,0,1,4.878,0Z" transform="translate(3134.248 711.503)" fill="#6b6868"/>
  </g>
</svg>
