<svg xmlns="http://www.w3.org/2000/svg" width="132" height="132" viewBox="0 0 132 132">
  <g id="Group_67" data-name="Group 67" transform="translate(-201 -164)">
    <g id="Group_90" data-name="Group 90">
      <g id="Ellipse_19" data-name="Ellipse 19" transform="translate(201 164)" fill="none" stroke="#707070" stroke-width="5">
        <circle cx="66" cy="66" r="66" stroke="none"/>
        <circle cx="66" cy="66" r="63.5" fill="none"/>
      </g>
      <g id="Layer_2" data-name="Layer 2" transform="matrix(1, 0.017, -0.017, 1, 233.947, 190.235)" opacity="0.85" style="mix-blend-mode: lighten;isolation: isolate">
        <g id="Layer_1" data-name="Layer 1" transform="translate(0 0)">
          <path id="Path_38" data-name="Path 38" d="M42.746,5.118c.983,4.049-1.9,5.9-5.818,6.879s-7.341.776-8.363-3.272,1.8-6.279,5.709-7.272S41.675,1,42.746,5.118Z" transform="translate(-0.486 -0.023)" fill="#fff"/>
          <path id="Path_39" data-name="Path 39" d="M33.472,13.414a5.562,5.562,0,0,1-5.9-4.511c-1.042-4.088,1.3-7.174,6.417-8.461s8.618.295,9.66,4.412-1.189,6.692-6.525,8.038A14.966,14.966,0,0,1,33.472,13.414Zm3.8-11.448a11.891,11.891,0,0,0-2.81.393c-2.791.708-5.9,2.339-4.992,6.073.737,2.948,2.86,3.656,7.174,2.565,5.4-1.366,5.611-3.626,5.1-5.66C41.166,3.037,39.781,1.965,37.275,1.965Z" transform="translate(-0.468 -0.005)" fill="#1f1e1f"/>
          <path id="Path_40" data-name="Path 40" d="M59.381,57.552c-.57-3.754-3.793-5.208-5.7-5.788s-5.061-.776-7.056-1.965-1.69-6.879-1.69-6.879H36.307s.314,5.719-1.68,6.879-5.159,1.346-7.066,1.965-5.12,2.044-5.69,5.788c-.452,3.017-.482,12.608-.482,12.608H59.852S59.833,60.569,59.381,57.552Z" transform="translate(-0.365 -0.748)" fill="#fff"/>
          <path id="Path_41" data-name="Path 41" d="M59.835,71.126H21.373a.983.983,0,0,1-.983-.983c0-.4,0-9.7.491-12.775s2.742-5.483,6.387-6.574a23.153,23.153,0,0,1,2.4-.54,15.536,15.536,0,0,0,4.452-1.3c.983-.57,1.307-3.931,1.189-5.945a.991.991,0,0,1,.983-1.042h8.628a.976.976,0,0,1,.983,1.042c-.108,2.054.187,5.375,1.189,5.945a15.605,15.605,0,0,0,4.461,1.3,23.152,23.152,0,0,1,2.4.54c3.636,1.091,5.9,3.43,6.378,6.574s.491,12.352.491,12.775A.983.983,0,0,1,59.835,71.126Zm-37.47-1.965H58.843c0-2.516-.1-9.129-.452-11.478-.462-3.017-2.948-4.383-5-4.992-.609-.177-1.386-.324-2.211-.482a16.824,16.824,0,0,1-5.061-1.533c-1.965-1.1-2.2-4.786-2.2-6.722H37.3c0,1.965-.265,5.621-2.2,6.722A16.824,16.824,0,0,1,30.04,52.21c-.825.157-1.6.3-2.211.482-2.024.609-4.54,1.965-5,4.992-.354,2.349-.442,8.962-.462,11.478Z" transform="translate(-0.348 -0.732)" fill="#1f1e1f"/>
          <path id="Path_42" data-name="Path 42" d="M53,28.138s1.818-7.773-.295-12.107C50.415,11.363,47,8.7,40.746,8.7s-9.709,2.663-11.989,7.331c-2.123,4.334-.295,12.107-.295,12.107-2.86-.57-2.329,2.555-1.435,3.931a8.363,8.363,0,0,1,1.2,2.584,1.228,1.228,0,0,0,2.123.57c.855,2.378,1.464,2.948,4.913,6.093,2.948,2.742,4.019,2.712,5.523,2.712s2.526,0,5.523-2.712c3.43-3.135,4.019-3.715,4.913-6.093,0,0,1.474,1.287,2.113-.57a8.589,8.589,0,0,1,1.2-2.584C55.319,30.693,55.86,27.568,53,28.138Z" transform="translate(-0.45 -0.156)" fill="#fff"/>
          <path id="Path_43" data-name="Path 43" d="M40.789,45.033H40.73l-.1-.983v.983c-1.779,0-3.076-.206-6.083-2.948s-3.931-3.626-4.737-5.464a2.22,2.22,0,0,1-.521.069,2.123,2.123,0,0,1-1.965-1.671l-.1-.265a7.016,7.016,0,0,0-.983-2.113c-.609-.983-1.287-2.948-.531-4.373a2.241,2.241,0,0,1,1.582-1.12c-.432-2.447-1.13-7.97.619-11.537,2.663-5.444,6.643-7.862,12.873-7.862S51,10.187,53.672,15.612c1.739,3.567,1.042,9.09.609,11.537a2.2,2.2,0,0,1,1.484,1.091c.767,1.386.079,3.42-.521,4.373a7.252,7.252,0,0,0-.983,2.1l-.1.285A2.123,2.123,0,0,1,52.2,36.661h0a2.142,2.142,0,0,1-.511-.069c-.9,1.867-1.906,2.85-4.805,5.464S42.557,45.033,40.789,45.033Zm-10.5-10.81a.825.825,0,0,1,.924.619c.776,2.162,1.287,2.634,4.619,5.7C38.5,43,39.334,43,40.592,43h.138l.049.983V43c1.258,0,2.083,0,4.756-2.457,3.449-3.154,3.862-3.567,4.619-5.7a.983.983,0,0,1,1.582-.314.983.983,0,0,0,.393.187,3,3,0,0,0,.147-.344l.1-.285a8.992,8.992,0,0,1,1.209-2.506,3.086,3.086,0,0,0,.462-2.368c0-.049-.088-.157-.423-.157a2.437,2.437,0,0,0-.442.049.975.975,0,0,1-1.15-1.189c0-.069,1.71-7.488-.226-11.448-2.329-4.766-5.65-6.8-11.075-6.8S31.885,11.7,29.586,16.447c-1.965,3.931-.246,11.38-.226,11.448a.983.983,0,0,1-1.15,1.189,2.635,2.635,0,0,0-.442-.049c-.344,0-.4.108-.423.157a3.037,3.037,0,0,0,.462,2.388,9.237,9.237,0,0,1,1.209,2.526l.088.265a.924.924,0,0,0,.187.354,1.1,1.1,0,0,0,.354-.206.983.983,0,0,1,.649-.256Z" transform="translate(-0.434 -0.139)" fill="#1f1e1f"/>
          <path id="Path_44" data-name="Path 44" d="M48.882,8.671a13.541,13.541,0,0,0-12.873,0c-14.5,1.6-9.424,19.89-9.424,19.89h0a1.69,1.69,0,0,1,1.828-.452c-.206-1.327,1.435-2.948,4-4.854a11.409,11.409,0,0,0,3.6-4.668,13.443,13.443,0,0,0,9,6.1c6.446,1.287,7.8,2.191,7.979,3.38a1.671,1.671,0,0,1,1.818.452h0S58.709,13.811,48.882,8.671Z" transform="translate(-0.44 -0.127)" fill="#fff"/>
          <path id="Path_45" data-name="Path 45" d="M54.8,29.526h0a.983.983,0,0,1-.786-.4c-.1-.128-.423-.147-.835-.069a.988.988,0,0,1-1.169-.816c-.128-.8-2.447-1.6-7.2-2.584a14.74,14.74,0,0,1-8.687-5.179A12.058,12.058,0,0,1,32.984,24c-2.948,2.152-3.606,3.253-3.626,3.8a1.219,1.219,0,0,1,0,.265.983.983,0,0,1-.983.983h-.2a2.438,2.438,0,0,0-.442-.049c-.3,0-.373.088-.393.118a.983.983,0,0,1-1.749-.314c-.108-.413-2.722-10.053,1.484-16.264A11.507,11.507,0,0,1,35.657,7.7,14.475,14.475,0,0,1,42.4,6.05a14.74,14.74,0,0,1,6.879,1.739c10.407,5.434,6.6,20.371,6.437,21A.983.983,0,0,1,54.8,29.526ZM42.418,8.015a12.333,12.333,0,0,0-5.9,1.474.983.983,0,0,1-.4.147c-3.341.364-5.818,1.72-7.37,4.009-2.9,4.275-2.015,10.81-1.494,13.433h.285c.491-1.592,2.319-3.145,4.294-4.609a10.417,10.417,0,0,0,3.253-4.216,1.026,1.026,0,0,1,1.838-.118,12.362,12.362,0,0,0,8.333,5.641c5.336,1.061,7.655,1.965,8.441,3.292a3.391,3.391,0,0,1,.472,0c.639-3.508,1.749-13.669-5.69-17.551a12.883,12.883,0,0,0-6.063-1.5Z" transform="translate(-0.422 -0.11)" fill="#1f1e1f"/>
          <path id="Path_46" data-name="Path 46" d="M34.627,50c-1.965,1.14-5.159,1.346-7.066,1.965s-5.12,1.965-5.69,5.709c-.452,3.017-.482,12.608-.482,12.608H59.852s0-9.591-.472-12.608c-.57-3.754-3.793-5.208-5.7-5.788s-5.061-.776-7.056-1.965a2.23,2.23,0,0,1-.246-.177l-5.808,6.152-5.7-6.152A2.231,2.231,0,0,1,34.627,50Z" transform="translate(-0.365 -0.866)" fill="#fff"/>
          <path id="Path_47" data-name="Path 47" d="M59.835,71.244H21.373a.983.983,0,0,1-.983-.983c0-.4,0-9.7.491-12.775S23.623,52,27.269,50.912a23.152,23.152,0,0,1,2.4-.54,15.536,15.536,0,0,0,4.452-1.3l.118-.088a.983.983,0,0,1,1.336.1l4.992,5.375,5.081-5.385A.983.983,0,0,1,46.982,49l.1.069a15.457,15.457,0,0,0,4.471,1.307,23.152,23.152,0,0,1,2.4.54c3.636,1.091,5.9,3.43,6.378,6.574s.491,12.352.491,12.775A.983.983,0,0,1,59.835,71.244Zm-37.47-1.965H58.843c0-2.516-.1-9.129-.452-11.478-.462-3.017-2.948-4.383-5-4.992-.609-.177-1.386-.324-2.211-.482a19.212,19.212,0,0,1-4.638-1.307l-5.257,5.572a.983.983,0,0,1-.717.314h0a.983.983,0,0,1-.717-.314L34.678,51.02a18.936,18.936,0,0,1-4.628,1.307c-.825.157-1.6.3-2.211.482-2.024.609-4.54,1.965-5,4.992-.364,2.349-.452,8.962-.472,11.478Z" transform="translate(-0.348 -0.849)" fill="#1f1e1f"/>
          <path id="Path_48" data-name="Path 48" d="M46.734,50a2.232,2.232,0,0,1-.246-.177,11.9,11.9,0,0,1-5.709,1.965,11.6,11.6,0,0,1-5.7-1.965,2.23,2.23,0,0,1-.246.177,11.87,11.87,0,0,1-3.194,1.091h0l9.139,10.033,9.149-10.033h0A11.635,11.635,0,0,1,46.734,50Z" transform="translate(-0.542 -0.868)" fill="#fff"/>
          <path id="Path_49" data-name="Path 49" d="M40.732,62.056h0A.983.983,0,0,1,40,61.742L30.865,51.709a1.009,1.009,0,0,1,.511-1.651,10.652,10.652,0,0,0,2.948-.983l.118-.088a.983.983,0,0,1,1.179,0,10.731,10.731,0,0,0,5.139,1.749A10.81,10.81,0,0,0,45.881,49a.983.983,0,0,1,1.179.059l.108.069a10.466,10.466,0,0,0,2.948.983.983.983,0,0,1,.776.983,1.051,1.051,0,0,1-.255.668L41.459,61.771A.983.983,0,0,1,40.732,62.056ZM33.411,51.581l7.321,8.038,7.321-8.038a9.621,9.621,0,0,1-1.621-.619,12.264,12.264,0,0,1-5.7,1.749,12.038,12.038,0,0,1-5.7-1.749,9.622,9.622,0,0,1-1.621.619Z" transform="translate(-0.525 -0.85)" fill="#1f1e1f"/>
          <path id="Path_50" data-name="Path 50" d="M44.223,40.736a.983.983,0,0,1,0-1.965c4.766,0,8.127-.983,9.709-2.948a4.186,4.186,0,0,0,.983-3.213.983.983,0,0,1,1.926-.393,6.132,6.132,0,0,1-1.346,4.815C53.5,39.5,49.706,40.736,44.223,40.736Z" transform="translate(-0.743 -0.549)" fill="#1f1e1f"/>
          <path id="Path_51" data-name="Path 51" d="M58.608,30.644c0-2.948-1.238-5.424-2.771-5.444h-.983v.334c-1.13.766-2.034,2.761-2.034,5.11s.9,4.353,2.034,5.11V36.1h.983C57.37,36.078,58.608,33.641,58.608,30.644Z" transform="translate(-0.909 -0.441)" fill="#fff"/>
          <path id="Path_52" data-name="Path 52" d="M55.819,37.063h-.983a.983.983,0,0,1-.983-.845,7.793,7.793,0,0,1-2.044-5.592,7.861,7.861,0,0,1,2.044-5.592.983.983,0,0,1,.983-.835h.983c2.142,0,3.754,2.791,3.754,6.427s-1.612,6.407-3.744,6.427ZM55.554,35.1h.255c.737,0,1.8-1.759,1.8-4.471s-1.071-4.452-1.8-4.461h-.255a.983.983,0,0,1-.187.167c-.8.54-1.6,2.182-1.6,4.294s.806,3.764,1.6,4.294A.8.8,0,0,1,55.554,35.1Z" transform="translate(-0.892 -0.424)" fill="#1f1e1f"/>
          <path id="Path_53" data-name="Path 53" d="M55.944,34.946a1.179,1.179,0,0,1-1.032,1.287H53.832A1.179,1.179,0,0,1,52.8,34.946v-8.6a1.179,1.179,0,0,1,1.032-1.287h1.042a1.179,1.179,0,0,1,1.071,1.287Z" transform="translate(-0.909 -0.439)" fill="#fff"/>
          <path id="Path_54" data-name="Path 54" d="M54.856,37.2H53.814a2.162,2.162,0,0,1-2.015-2.27v-8.6a2.152,2.152,0,0,1,2.015-2.27h1.042a2.152,2.152,0,0,1,2.054,2.27v8.6a2.162,2.162,0,0,1-2.054,2.27ZM54.8,26.016h-.983a.862.862,0,0,0-.049.3v8.6a.413.413,0,0,0,.108.314h.983a.452.452,0,0,0,.1-.3v-8.6a.413.413,0,0,0-.157-.314Z" transform="translate(-0.891 -0.422)" fill="#1f1e1f"/>
          <path id="Path_55" data-name="Path 55" d="M23.22,30.644c0-2.948,1.238-5.424,2.771-5.444h.983v.334C28.1,26.3,29,28.3,29,30.644S28.1,35,26.974,35.754V36.1H25.952C24.458,36.078,23.22,33.641,23.22,30.644Z" transform="translate(-0.397 -0.441)" fill="#fff"/>
          <path id="Path_56" data-name="Path 56" d="M26.976,37.063H25.934c-2.152,0-3.754-2.791-3.754-6.437s1.651-6.407,3.754-6.427h.983a.995.995,0,0,1,.973.835,7.861,7.861,0,0,1,2.034,5.592,7.862,7.862,0,0,1-2.034,5.592A.983.983,0,0,1,26.976,37.063Zm-1.042-10.9c-.727,0-1.788,1.749-1.788,4.461s1.061,4.461,1.8,4.461h.246a1.1,1.1,0,0,1,.2-.167c.786-.531,1.592-2.182,1.592-4.294a5.5,5.5,0,0,0-1.592-4.294.806.806,0,0,1-.2-.167Z" transform="translate(-0.379 -0.424)" fill="#1f1e1f"/>
          <path id="Path_57" data-name="Path 57" d="M26,34.946a1.179,1.179,0,0,0,.983,1.287h1.032a1.179,1.179,0,0,0,1.032-1.287v-8.6a1.179,1.179,0,0,0-1.032-1.287H26.983A1.179,1.179,0,0,0,26,26.347Z" transform="translate(-0.445 -0.439)" fill="#fff"/>
          <path id="Path_58" data-name="Path 58" d="M28.017,37.2H26.965A2.162,2.162,0,0,1,25,34.929v-8.6a2.152,2.152,0,0,1,1.965-2.27H28a2.152,2.152,0,0,1,2.015,2.27v8.6A2.162,2.162,0,0,1,28.017,37.2Zm-.069-11.183h-.983a.862.862,0,0,0-.049.3v8.6a.413.413,0,0,0,.108.314h.983a.531.531,0,0,0,.088-.3v-8.6a.413.413,0,0,0-.147-.314Z" transform="translate(-0.427 -0.422)" fill="#1f1e1f"/>
          <path id="Path_59" data-name="Path 59" d="M55.463,26.346a.983.983,0,0,1-.983-.983,13.758,13.758,0,1,0-27.515,0,.983.983,0,0,1-1.965,0,15.723,15.723,0,1,1,31.446,0A.983.983,0,0,1,55.463,26.346Z" transform="translate(-0.428 -0.172)" fill="#1f1e1f"/>
          <path id="Path_60" data-name="Path 60" d="M45.959,39.89a1.209,1.209,0,0,1-1.268,1.16H40.357a1.219,1.219,0,0,1-1.277-1.16h0a1.219,1.219,0,0,1,1.277-1.16h4.334a1.219,1.219,0,0,1,1.268,1.16Z" transform="translate(-0.671 -0.676)" fill="#fff"/>
          <path id="Path_61" data-name="Path 61" d="M44.673,42.014H40.339a2.162,2.162,0,1,1,0-4.314h4.334a2.162,2.162,0,1,1,0,4.314Zm-4.334-2.349c-.177,0-.295.108-.295.177a.293.293,0,0,0,.295.206h4.334c.167,0,.285-.1.285-.177a.265.265,0,0,0-.285-.206Z" transform="translate(-0.653 -0.658)" fill="#1f1e1f"/>
          <path id="Path_62" data-name="Path 62" d="M44.136,69.09H12.13L12.661,74H50.288V69.09Z" transform="translate(-0.205 -1.201)" fill="#fff"/>
          <path id="Path_63" data-name="Path 63" d="M50.31,74.969H12.643a.983.983,0,0,1-.983-.875l-.521-4.913a.98.98,0,0,1,.973-1.091h38.2a.983.983,0,0,1,.983.983v4.913A.983.983,0,0,1,50.31,74.969ZM13.567,73h35.76V70.055H13.213Z" transform="translate(-0.188 -1.184)" fill="#1f1e1f"/>
          <path id="Path_64" data-name="Path 64" d="M43.315,73.486H4.027L1,43.74H40.288Z" transform="translate(-0.012 -0.762)" fill="#fff"/>
          <path id="Path_65" data-name="Path 65" d="M43.317,74.442H4.009a.983.983,0,0,1-.983-.884L0,43.821A.979.979,0,0,1,.983,42.74H40.29a.983.983,0,0,1,.983.884l2.948,29.549a.924.924,0,0,1,0,.295A.983.983,0,0,1,43.317,74.442Zm-38.4-1.965H42.256L39.386,44.705H2.044Z" transform="translate(0.005 -0.745)" fill="#1f1e1f"/>
          <path id="Path_66" data-name="Path 66" d="M29.944,58.737A7.547,7.547,0,1,1,22.4,51.19a7.547,7.547,0,0,1,7.547,7.547Z" transform="translate(-0.252 -0.891)" fill="#fff"/>
          <path id="Path_67" data-name="Path 67" d="M22.38,67.249a8.53,8.53,0,1,1,8.53-8.53A8.53,8.53,0,0,1,22.38,67.249Zm0-15.094a6.564,6.564,0,1,0,6.564,6.564,6.564,6.564,0,0,0-6.564-6.564Z" transform="translate(-0.235 -0.874)" fill="#1f1e1f"/>
          <rect id="Rectangle_38" data-name="Rectangle 38" width="2.211" height="5.975" transform="translate(21.035 52.913)" fill="#fff"/>
          <path id="Path_68" data-name="Path 68" d="M23.594,60.79H21.383a.983.983,0,0,1-.983-.983V53.833a.983.983,0,0,1,.983-.983h2.211a.983.983,0,0,1,.983.983v5.975A.983.983,0,0,1,23.594,60.79Zm-1.228-1.965h.246V54.815h-.246Z" transform="translate(-0.348 -0.92)" fill="#1f1e1f"/>
          <rect id="Rectangle_39" data-name="Rectangle 39" width="2.211" height="2.005" transform="translate(21.035 60.784)" fill="#fff"/>
          <rect id="Rectangle_40" data-name="Rectangle 40" width="4.176" height="3.97" rx="1" transform="translate(20.052 59.801)" fill="#1f1e1f"/>
        </g>
      </g>
    </g>
  </g>
</svg>
