<svg xmlns="http://www.w3.org/2000/svg" width="1366" height="689.5" viewBox="0 0 1366 689.5">
  <g id="Group_91" data-name="Group 91" transform="translate(0 0.5)">
    <rect id="Rectangle_1" data-name="Rectangle 1" width="1366" height="689" fill="#4b4b4b"/>
    <path id="Subtraction_1" data-name="Subtraction 1" d="M306.5,1375a255.28,255.28,0,0,1-46.454-4.246,246.923,246.923,0,0,1-43.267-12.178,238.893,238.893,0,0,1-39.154-19.27,228.851,228.851,0,0,1-34.113-25.521,216.5,216.5,0,0,1-28.146-30.931,203.729,203.729,0,0,1-21.252-35.5,194.039,194.039,0,0,1-13.431-39.231,191.777,191.777,0,0,1-.139-83.621H532.456a191.774,191.774,0,0,1-.139,83.621,194.042,194.042,0,0,1-13.431,39.231,203.733,203.733,0,0,1-21.252,35.5,216.506,216.506,0,0,1-28.146,30.931,228.843,228.843,0,0,1-34.113,25.521,238.9,238.9,0,0,1-39.154,19.27,246.922,246.922,0,0,1-43.267,12.178A255.277,255.277,0,0,1,306.5,1375Z" transform="translate(-62 -1125)" fill="#828282"/>
  </g>
</svg>
