<svg xmlns="http://www.w3.org/2000/svg" width="137" height="137.651" viewBox="0 0 137 137.651">
  <g id="Group_69" data-name="Group 69" transform="translate(-732 -161)">
    <g id="Path_69" data-name="Path 69" transform="translate(732 161)" fill="none">
      <path d="M68.5,0A68.826,68.826,0,1,1,0,68.825,68.663,68.663,0,0,1,68.5,0Z" stroke="none"/>
      <path d="M 68.5 5 C 59.92830657958984 5 51.61543273925781 6.685714721679688 43.79230499267578 10.01035308837891 C 40.03130340576172 11.60868072509766 36.40332794189453 13.58731079101563 33.0091552734375 15.89124298095703 C 29.64547729492188 18.17450714111328 26.48217010498047 20.79692077636719 23.60708618164063 23.68565368652344 C 20.73160552978516 26.57480621337891 18.12106323242188 29.75382995605469 15.84797668457031 33.13441467285156 C 13.55367279052734 36.54656982421875 11.58321380615234 40.19400787353516 9.99139404296875 43.97541809082031 C 6.679351806640625 51.84317779541016 5 60.20391845703125 5 68.825439453125 C 5 77.44696044921875 6.679351806640625 85.80770111083984 9.99139404296875 93.67546081542969 C 11.58321380615234 97.45687866210938 13.55367279052734 101.1043090820313 15.84797668457031 104.5164642333984 C 18.12106323242188 107.8970489501953 20.73160552978516 111.0760726928711 23.60708618164063 113.9652252197266 C 26.48217010498047 116.8539581298828 29.64547729492188 119.4763717651367 33.0091552734375 121.759635925293 C 36.40332794189453 124.0635681152344 40.03130340576172 126.0421981811523 43.79230499267578 127.6405258178711 C 51.61543273925781 130.9651641845703 59.92830657958984 132.65087890625 68.5 132.65087890625 C 77.07170104980469 132.65087890625 85.38456726074219 130.9651641845703 93.20769500732422 127.6405258178711 C 96.96869659423828 126.0421981811523 100.5966720581055 124.0635681152344 103.9908447265625 121.759635925293 C 107.3545227050781 119.4763717651367 110.517822265625 116.8539581298828 113.3929138183594 113.9652252197266 C 116.2683868408203 111.0760726928711 118.8789367675781 107.8970489501953 121.1520233154297 104.5164642333984 C 123.4463272094727 101.1043090820313 125.4167785644531 97.45687866210938 127.0086059570313 93.67546081542969 C 130.3206481933594 85.80770111083984 132 77.44696044921875 132 68.825439453125 C 132 60.20391845703125 130.3206481933594 51.84317779541016 127.0086059570313 43.97541809082031 C 125.4167785644531 40.19400787353516 123.4463272094727 36.54656982421875 121.1520233154297 33.13441467285156 C 118.8789367675781 29.75382995605469 116.2683868408203 26.57480621337891 113.3929138183594 23.68565368652344 C 110.517822265625 20.79692077636719 107.3545227050781 18.17450714111328 103.9908447265625 15.89124298095703 C 100.5966720581055 13.58731079101563 96.96869659423828 11.60868072509766 93.20769500732422 10.01035308837891 C 85.38456726074219 6.685714721679688 77.07170104980469 5 68.5 5 M 68.5 0 C 106.3314971923828 0 137 30.81420135498047 137 68.825439453125 C 137 106.8366775512695 106.3314971923828 137.65087890625 68.5 137.65087890625 C 30.66850280761719 137.65087890625 0 106.8366775512695 0 68.825439453125 C 0 30.81420135498047 30.66850280761719 0 68.5 0 Z" stroke="none" fill="#707070"/>
    </g>
    <g id="Layer_2" data-name="Layer 2" transform="translate(772.657 192.208)" opacity="0.85" style="mix-blend-mode: lighten;isolation: isolate">
      <g id="Layer_1" data-name="Layer 1" transform="translate(0)">
        <path id="Path_2" data-name="Path 2" d="M57.717,62.8c-.708-4.639-1.3-6.4-7.735-7.145-2.427-.275-9.061-.983-11.528-2.369s-2.074-8.452-2.074-8.452H22.916s.393,7.047-2.074,8.452-9.091,2.093-11.528,2.369C2.877,56.4,2.287,58.157,1.59,62.8A71.478,71.478,0,0,0,1,71.533H58.3a72.723,72.723,0,0,0-.58-8.737Z" transform="translate(-0.016 -0.771)" fill="#fff"/>
        <path id="Path_3" data-name="Path 3" d="M58.28,72.5H.983A.992.992,0,0,1,0,71.456a72.109,72.109,0,0,1,.6-8.845c.786-5.15,1.73-7.174,8.58-7.97l.462-.049c2.555-.295,8.55-.983,10.7-2.2,1.337-.757,1.73-4.914,1.572-7.548a1.042,1.042,0,0,1,.265-.727.983.983,0,0,1,.717-.3H36.363a.975.975,0,0,1,.983,1.032c-.147,2.683.246,6.791,1.582,7.548,2.142,1.228,8.138,1.907,10.693,2.2l.462.049c6.88.8,7.8,2.821,8.58,7.97a72.108,72.108,0,0,1,.6,8.845A1.08,1.08,0,0,1,58.28,72.5ZM1.966,70.532H57.287a68.029,68.029,0,0,0-.56-7.558c-.639-4.2-.855-5.612-6.88-6.31l-.452-.059c-2.948-.324-8.953-.983-11.45-2.437s-2.565-6.1-2.565-8.373H23.911c0,2.27-.226,6.968-2.595,8.324s-8.54,2.113-11.489,2.437l-.462.059c-6,.7-6.221,2.113-6.88,6.31a65.719,65.719,0,0,0-.521,7.607Z" transform="translate(0.001 -0.754)" fill="#1f1e1f"/>
        <path id="Path_4" data-name="Path 4" d="M45.007,26.535h-.3c.128-1.032.256-2.044.383-3.007C45.735,18.555,47.2,4,29.843,4S13.971,18.555,14.6,23.528c.128.983.256,1.966.383,3.007h-.295c-2.644-1.966-2.87,3.145-1.769,4.914A10.683,10.683,0,0,1,14.4,34.634c.4,1.17,1.081,1.327,1.641,1.2.079.7.138,1.307.177,1.789.246,2.673,6.693,8.049,8.147,9.73s3.656.983,4.383.924l1.091-.049,1.091.049c.737,0,3.017.649,4.383-.924s7.862-7.056,8.147-9.73c0-.482.108-1.091.177-1.789.56.128,1.238,0,1.641-1.2a10.683,10.683,0,0,1,1.484-3.184C47.867,29.68,47.641,24.58,45.007,26.535Z" transform="translate(-0.21 -0.069)" fill="#fff"/>
        <path id="Path_5" data-name="Path 5" d="M32.627,49.368a9.827,9.827,0,0,1-1.366-.108H30.9l-1.071-.069H28.411a9.581,9.581,0,0,1-1.356.108,4.3,4.3,0,0,1-3.44-1.415c-.344-.383-.983-1.042-1.808-1.8-3.479-3.342-6.378-6.29-6.585-8.482a4.67,4.67,0,0,0-.079-.983A2.536,2.536,0,0,1,13.462,34.8l-.118-.334a9.209,9.209,0,0,0-1.268-2.654,6.712,6.712,0,0,1-.256-5.7,2.015,2.015,0,0,1,1.966-1.13c-.059-.491-.128-.983-.187-1.464-.344-2.624-1.386-10.6,3.194-15.813C19.595,4.641,23.978,3,29.826,3S40.057,4.641,42.858,7.826c4.57,5.209,3.528,13.189,3.184,15.813-.059.482-.118.983-.187,1.464a2.015,2.015,0,0,1,1.966,1.13,6.673,6.673,0,0,1-.265,5.7A8.845,8.845,0,0,0,46.3,34.577l-.118.344A2.565,2.565,0,0,1,44.5,36.739c0,.344-.069.658-.088.983-.206,2.192-3.1,5.14-6.575,8.482-.8.757-1.474,1.415-1.808,1.8a4.324,4.324,0,0,1-3.4,1.366Zm-2.8-2.142h.059l1.081.049.521.059a8.945,8.945,0,0,0,1.12.088,2.418,2.418,0,0,0,1.966-.737c.393-.452,1.071-1.1,1.966-1.966,2.034-1.966,5.828-5.6,5.975-7.253.049-.482.108-1.091.187-1.789a.924.924,0,0,1,.4-.7.983.983,0,0,1,.786-.157H44c.187,0,.354-.482.393-.57l.118-.344a10.329,10.329,0,0,1,1.464-3.056c.658-1.042.55-3.5.1-3.833a2.566,2.566,0,0,0-.452.256.983.983,0,0,1-.58.2h-.3a1,1,0,0,1-.973-1.1c.128-.983.256-2.054.383-3.007.275-2.378,1.258-9.7-2.771-14.241-2.4-2.742-6.29-4.157-11.548-4.157s-9.14,1.386-11.548,4.128c-3.931,4.541-3.037,11.862-2.722,14.27.128.983.256,1.966.383,3.007a.981.981,0,0,1-.973,1.1h-.295a.983.983,0,0,1-.59-.2,1.111,1.111,0,0,0-.482-.246c-.423.3-.531,2.771.138,3.823A10.889,10.889,0,0,1,15.2,33.919l.118.324c0,.1.206.58.393.58h.1a.978.978,0,0,1,1.2.855l.177,1.8c.147,1.631,3.931,5.278,5.975,7.243.855.826,1.533,1.474,1.966,1.966a2.388,2.388,0,0,0,1.966.737,8.933,8.933,0,0,0,1.111-.088l.491-.108h1.081Z" transform="translate(-0.193 -0.052)" fill="#1f1e1f"/>
        <path id="Path_6" data-name="Path 6" d="M41.57,3.948c-3.676-1.622-5.445-.727-5.445-.727h0c-.983-1.061-3.518-2.84-9.1-2.074-7.764,1.091-8.531,2.8-11.4,2.152a18.781,18.781,0,0,0-1.848,5.022,32.019,32.019,0,0,0,1.071,17.5,45.3,45.3,0,0,0,1.337,4.59s-.727-9.5.727-13.268,6.595-4.57,8.3-2.948,4.639,1.455,4.639,1.455,2.948.187,4.639-1.455c1.445-1.386,5.307-.983,7.371,1.4l.668.983c.1.187.187.364.265.55,1.464,3.764.727,13.268.727,13.268a47.724,47.724,0,0,0,2.192-9.16h0C47.752,9.265,44.912,5.442,41.57,3.948Z" transform="translate(-0.223 -0.017)" fill="#fff"/>
        <path id="Path_7" data-name="Path 7" d="M16.168,31.381a.983.983,0,0,1-.924-.639,45.573,45.573,0,0,1-1.366-4.708A33.081,33.081,0,0,1,12.8,8.1a20.118,20.118,0,0,1,1.966-5.307.983.983,0,0,1,1.081-.472,5.808,5.808,0,0,0,3.489-.432A40.628,40.628,0,0,1,26.86.2a20.236,20.236,0,0,1,2.7-.2c3.627,0,5.72,1.189,6.8,2.133a5.671,5.671,0,0,1,1.189-.167,10.958,10.958,0,0,1,4.354,1.052c4.973,2.192,6.477,8.02,4.727,18.339a49.14,49.14,0,0,1-2.2,9.386.985.985,0,0,1-1.907-.413c0-.1.7-9.337-.668-12.835-.059-.138-.118-.275-.187-.4l-.619-.894a5.612,5.612,0,0,0-4.1-1.818,2.722,2.722,0,0,0-1.808.531,7.509,7.509,0,0,1-5.032,1.73h-.57a7.509,7.509,0,0,1-5.032-1.73,2.732,2.732,0,0,0-1.818-.531,5.3,5.3,0,0,0-4.914,3.115c-1.248,3.224-.767,11.3-.678,12.649a.737.737,0,0,1,0,.256.983.983,0,0,1-.983.983S16.177,31.39,16.168,31.381Zm0-27.007A18.025,18.025,0,0,0,14.743,8.5a30.909,30.909,0,0,0,.314,14.565,21.543,21.543,0,0,1,.983-6.29,7.283,7.283,0,0,1,6.722-4.364,4.511,4.511,0,0,1,3.174,1.081,5.71,5.71,0,0,0,3.676,1.179h.57a5.681,5.681,0,0,0,3.676-1.179,4.5,4.5,0,0,1,3.165-1.081,7.538,7.538,0,0,1,5.622,2.545.265.265,0,0,1,.069.079l.678.983.059.1a6.555,6.555,0,0,1,.3.649,18.673,18.673,0,0,1,.894,5.287c.049-.314.1-.629.138-.983C46.8,8.845,43.686,5.966,41.16,4.855a9.042,9.042,0,0,0-3.607-.924,3.007,3.007,0,0,0-.983.187,1.16,1.16,0,0,1-.295.1.983.983,0,0,1-.894-.285C34.7,3.2,33.042,1.966,29.563,1.966a17.906,17.906,0,0,0-2.437.177,39.115,39.115,0,0,0-7.214,1.622,8.511,8.511,0,0,1-3.764.609Z" transform="translate(-0.206)" fill="#1f1e1f"/>
        <path id="Path_8" data-name="Path 8" d="M33.493,44.38a.983.983,0,1,1,0-1.966c5.1,0,8.786-1.238,10.958-3.685a8.845,8.845,0,0,0,2.113-6.359.99.99,0,0,1,1.966-.236A10.811,10.811,0,0,1,45.955,40C43.38,42.916,39.193,44.38,33.493,44.38Z" transform="translate(-0.558 -0.538)" fill="#1f1e1f"/>
        <path id="Path_9" data-name="Path 9" d="M50.667,29.045c0-3.627-1.494-6.555-3.341-6.575H46.117v.4c-1.356.924-2.447,3.332-2.447,6.172s1.091,5.238,2.447,6.162v.4h1.209C49.174,35.59,50.667,32.652,50.667,29.045Z" transform="translate(-0.75 -0.387)" fill="#fff"/>
        <path id="Path_10" data-name="Path 10" d="M47.309,36.576H46.1a.983.983,0,0,1-.983-.9c-1.494-1.317-2.457-3.931-2.457-6.644s.983-5.337,2.457-6.654a.983.983,0,0,1,.983-.9h1.317c2.408.108,4.216,3.332,4.216,7.558s-1.759,7.44-4.216,7.548ZM46.9,34.61h.4c.983,0,2.369-2.142,2.369-5.582s-1.376-5.582-2.369-5.592h-.373a1.12,1.12,0,0,1-.246.236c-.983.678-1.966,2.732-1.966,5.356S45.7,33.7,46.68,34.374a1.12,1.12,0,0,1,.246.236Z" transform="translate(-0.733 -0.369)" fill="#1f1e1f"/>
        <path id="Path_11" data-name="Path 11" d="M47.414,34.221a1.425,1.425,0,0,1-1.248,1.543H44.918a1.425,1.425,0,0,1-1.248-1.553V23.853A1.425,1.425,0,0,1,44.918,22.3h1.248a1.425,1.425,0,0,1,1.248,1.553Z" transform="translate(-0.75 -0.384)" fill="#fff"/>
        <path id="Path_12" data-name="Path 12" d="M46.149,36.73H44.9a2.4,2.4,0,0,1-2.231-2.536V23.836A2.4,2.4,0,0,1,44.9,21.3h1.248a2.4,2.4,0,0,1,2.231,2.536V34.2A2.4,2.4,0,0,1,46.149,36.73ZM44.9,23.266c-.069,0-.265.2-.265.57V34.2c0,.373.2.57.265.57h1.248c.069,0,.265-.2.265-.57V23.836c0-.373-.2-.57-.265-.57Z" transform="translate(-0.733 -0.366)" fill="#1f1e1f"/>
        <path id="Path_13" data-name="Path 13" d="M9.51,29.045c0-3.627,1.494-6.555,3.342-6.575H14.06v.4c1.366.924,2.447,3.332,2.447,6.172s-1.081,5.238-2.447,6.162v.4H12.852C10.974,35.59,9.51,32.652,9.51,29.045Z" transform="translate(-0.162 -0.387)" fill="#fff"/>
        <path id="Path_14" data-name="Path 14" d="M14.043,36.576H12.736c-2.418-.108-4.226-3.332-4.226-7.548s1.808-7.45,4.226-7.558h1.307a.983.983,0,0,1,.983.9c1.484,1.317,2.447,3.931,2.447,6.654a9.271,9.271,0,0,1-2.447,6.644A.983.983,0,0,1,14.043,36.576Zm-1.13-1.966h.334a1.12,1.12,0,0,1,.246-.236c.983-.678,2.015-2.732,2.015-5.346s-.983-4.678-2.015-5.356a1.12,1.12,0,0,1-.246-.236h-.4c-.983,0-2.369,2.142-2.369,5.592s1.386,5.572,2.369,5.582Z" transform="translate(-0.145 -0.369)" fill="#1f1e1f"/>
        <path id="Path_15" data-name="Path 15" d="M12.83,34.221a1.415,1.415,0,0,0,1.248,1.543h1.248a1.415,1.415,0,0,0,1.238-1.553V23.853A1.415,1.415,0,0,0,15.326,22.3H14.078a1.415,1.415,0,0,0-1.248,1.553Z" transform="translate(-0.219 -0.384)" fill="#fff"/>
        <path id="Path_16" data-name="Path 16" d="M15.309,36.73H14.061a2.4,2.4,0,0,1-2.231-2.536V23.836A2.4,2.4,0,0,1,14.061,21.3h1.248a2.388,2.388,0,0,1,2.221,2.536V34.2A2.388,2.388,0,0,1,15.309,36.73ZM14.061,23.266c-.069,0-.265.2-.265.57V34.2c0,.373.2.57.265.57h1.248c.059,0,.256-.2.256-.57V23.836c0-.373-.2-.57-.256-.57Z" transform="translate(-0.202 -0.366)" fill="#1f1e1f"/>
        <path id="Path_17" data-name="Path 17" d="M46.789,23.656a.983.983,0,0,1-.983-.983c0-9.219-7.165-16.708-15.97-16.708s-15.97,7.489-15.97,16.708a.983.983,0,0,1-1.966,0C11.9,12.373,19.949,4,29.836,4s17.936,8.373,17.936,18.673A.983.983,0,0,1,46.789,23.656Z" transform="translate(-0.203 -0.069)" fill="#1f1e1f"/>
        <rect id="Rectangle_37" data-name="Rectangle 37" width="7.302" height="2.742" rx="1.37" transform="translate(28.532 41.494)" fill="#fff"/>
        <path id="Path_18" data-name="Path 18" d="M34.971,45.918H30.361a2.359,2.359,0,0,1,0-4.708h4.609a2.359,2.359,0,0,1,0,4.708Zm-4.609-2.732a.373.373,0,0,0-.364.364.383.383,0,0,0,.364.413h4.609a.364.364,0,0,0,.364-.373.373.373,0,0,0-.364-.4Z" transform="translate(-0.483 -0.709)" fill="#1f1e1f"/>
        <path id="Path_19" data-name="Path 19" d="M29.5,54.006,22.376,50.93h0a3.931,3.931,0,0,1-1.533,2.457c-2.467,1.405-9.091,2.093-11.528,2.369C2.877,56.5,2.287,58.262,1.59,62.9A71.478,71.478,0,0,0,1,71.637H58.3a72.727,72.727,0,0,0-.58-8.688c-.708-4.639-1.3-6.4-7.735-7.145-2.427-.275-9.061-.983-11.528-2.369a4,4,0,0,1-1.533-2.457h0Z" transform="translate(-0.016 -0.876)" fill="#fff"/>
        <path id="Path_20" data-name="Path 20" d="M58.3,72.6H.983A.992.992,0,0,1,0,71.561a72.109,72.109,0,0,1,.6-8.845c.786-5.15,1.73-7.174,8.58-7.97l.462-.049c2.555-.295,8.55-.983,10.7-2.2a3.184,3.184,0,0,0,1.071-1.867A.983.983,0,0,1,22.752,50l6.732,2.948L36.511,50a.983.983,0,0,1,1.317.639A3.135,3.135,0,0,0,38.909,52.5c2.142,1.228,8.138,1.907,10.693,2.2l.462.049c6.88.8,7.8,2.821,8.58,7.97a71.235,71.235,0,0,1,.6,8.629.737.737,0,0,1,0,.206A.983.983,0,0,1,58.3,72.6ZM1.966,70.637H57.287a68.029,68.029,0,0,0-.56-7.558c-.639-4.2-.855-5.612-6.88-6.31l-.452-.059c-2.948-.324-8.953-.983-11.45-2.437a4.01,4.01,0,0,1-1.631-1.966l-6.447,2.6a1.032,1.032,0,0,1-.767,0l-6.162-2.663a4.02,4.02,0,0,1-1.622,1.966c-2.506,1.435-8.54,2.123-11.489,2.447l-.462.059c-6,.7-6.221,2.113-6.88,6.31a65.72,65.72,0,0,0-.521,7.607Z" transform="translate(0.001 -0.859)" fill="#1f1e1f"/>
        <path id="Path_21" data-name="Path 21" d="M30.438,57.921l-.354-.491-.344.491L26.31,71.091l1.956.609H31.9l1.956-.609Z" transform="translate(-0.451 -0.988)" fill="#fff"/>
        <path id="Path_22" data-name="Path 22" d="M31.885,72.717H28.248a.982.982,0,0,1-.285,0L26,72.117a.983.983,0,0,1-.658-1.189l3.42-13.179a1.071,1.071,0,0,1,.147-.324l.354-.482a.983.983,0,0,1,.8-.413h0a.983.983,0,0,1,.806.413l.344.482a1.071,1.071,0,0,1,.147.324L34.833,70.83a.983.983,0,0,1-.658,1.189l-1.966.6a.914.914,0,0,1-.324.1Zm-3.479-1.966h3.332l.914-.285-2.585-10-2.585,9.946Z" transform="translate(-0.434 -0.973)" fill="#1f1e1f"/>
        <path id="Path_23" data-name="Path 23" d="M16.361,54.83h0c-2.654.521-5.592.826-7.047.983-6.437.747-7.027,2.506-7.725,7.145A71.477,71.477,0,0,0,1,71.7H27.83Z" transform="translate(-0.016 -0.943)" fill="#fff"/>
        <path id="Path_24" data-name="Path 24" d="M27.813,72.669H.983A.992.992,0,0,1,0,71.627a72.109,72.109,0,0,1,.6-8.845c.786-5.15,1.73-7.174,8.58-7.97l.442-.049c1.553-.177,4.157-.472,6.536-.983a.983.983,0,0,1,.983.413L28.629,71.087a.983.983,0,0,1-.816,1.582ZM1.966,70.7h23.99L15.9,55.962c-2.27.413-4.609.678-6.054.845l-.442.049c-6,.7-6.221,2.113-6.88,6.31a65.718,65.718,0,0,0-.56,7.538Z" transform="translate(0.001 -0.925)" fill="#1f1e1f"/>
        <path id="Path_25" data-name="Path 25" d="M58.83,71.706a72.728,72.728,0,0,0-.58-8.688c-.708-4.639-1.3-6.4-7.735-7.145-1.445-.167-4.383-.472-7.047-.983h0L32,71.706Z" transform="translate(-0.549 -0.944)" fill="#fff"/>
        <path id="Path_26" data-name="Path 26" d="M58.813,72.67H31.983a.971.971,0,0,1-.816-1.5L42.636,54.253a.983.983,0,0,1,.983-.413c2.378.472,4.983.767,6.536.983l.442.049c6.88.8,7.8,2.821,8.58,7.97a72.105,72.105,0,0,1,.6,8.845.973.973,0,0,1-.963.983ZM33.84,70.7h23.98a68.031,68.031,0,0,0-.56-7.558c-.639-4.2-.855-5.612-6.88-6.31l-.442-.049c-1.445-.167-3.784-.432-6.044-.845Z" transform="translate(-0.532 -0.926)" fill="#1f1e1f"/>
        <path id="Path_27" data-name="Path 27" d="M27.66,56.429l2.31,2.457,2.693-2.457L29.97,54.06Z" transform="translate(-0.474 -0.93)" fill="#fff"/>
        <path id="Path_28" data-name="Path 28" d="M29.942,59.882a.983.983,0,0,1-.717-.3l-2.31-2.457a.983.983,0,0,1,0-1.356l2.31-2.369a.983.983,0,0,1,1.356,0l2.693,2.369a.979.979,0,0,1,.01,1.464l-2.673,2.359A.983.983,0,0,1,29.942,59.882Zm-.983-3.42.983,1.061,1.17-1.061-1.17-.983Z" transform="translate(-0.457 -0.914)" fill="#1f1e1f"/>
        <path id="Path_29" data-name="Path 29" d="M29.845,54.006l-4.708,4.826L20.43,54.006l2.29-3.076Z" transform="translate(-0.35 -0.876)" fill="#fff"/>
        <path id="Path_30" data-name="Path 30" d="M25.12,59.827a.983.983,0,0,1-.708-.295l-4.708-4.816a.983.983,0,0,1-.079-1.278l2.329-3.115a.983.983,0,0,1,1.179-.314l7.125,3.076a.978.978,0,0,1,.314,1.592l-4.7,4.816A.983.983,0,0,1,25.12,59.827Zm-3.42-5.9,3.42,3.5,3.007-3.076-5.1-2.2Z" transform="translate(-0.333 -0.859)" fill="#1f1e1f"/>
        <path id="Path_31" data-name="Path 31" d="M30.01,54.006l4.708,4.826,4.708-4.826-2.29-3.076Z" transform="translate(-0.515 -0.876)" fill="#fff"/>
        <path id="Path_32" data-name="Path 32" d="M34.7,59.827a.983.983,0,0,1-.708-.295l-4.708-4.816a.983.983,0,0,1,.314-1.592L36.735,50a.983.983,0,0,1,1.17.314l2.29,3.076a.983.983,0,0,1-.088,1.278L35.4,59.483A.924.924,0,0,1,34.7,59.827Zm-3.007-5.5L34.7,57.4l3.42-3.469-1.327-1.779Z" transform="translate(-0.498 -0.859)" fill="#1f1e1f"/>
      </g>
    </g>
  </g>
</svg>
